<?xml version="1.0" encoding="UTF-8" standalone="no"?>
<svg
   viewBox="0 0 24 24"
   fill="none"
   id="Window-Tabs--Streamline-Iconoir.svg"
   height="24"
   width="24"
   version="1.1"
   sodipodi:docname="Window-Tabs--Streamline-Iconoir.svg"
   inkscape:version="1.3.2 (091e20ef0f, 2023-11-25)"
   inkscape:export-filename="Window-Tabs--Streamline-Iconoir.png"
   inkscape:export-xdpi="512"
   inkscape:export-ydpi="512"
   xmlns:inkscape="http://www.inkscape.org/namespaces/inkscape"
   xmlns:sodipodi="http://sodipodi.sourceforge.net/DTD/sodipodi-0.dtd"
   xmlns="http://www.w3.org/2000/svg"
   xmlns:svg="http://www.w3.org/2000/svg">
  <defs
     id="defs1" />
  <sodipodi:namedview
     id="namedview1"
     pagecolor="#ffffff"
     bordercolor="#000000"
     borderopacity="0.25"
     inkscape:showpageshadow="2"
     inkscape:pageopacity="0.0"
     inkscape:pagecheckerboard="0"
     inkscape:deskcolor="#d1d1d1"
     inkscape:zoom="28.841424"
     inkscape:cx="13.712915"
     inkscape:cy="9.6909224"
     inkscape:window-width="1988"
     inkscape:window-height="1277"
     inkscape:window-x="26"
     inkscape:window-y="23"
     inkscape:window-maximized="0"
     inkscape:current-layer="Window-Tabs--Streamline-Iconoir.svg" />
  <desc
     id="desc1">Window Tabs Streamline Icon: https://streamlinehq.com</desc>
  <rect
     style="fill:#ffffff;fill-opacity:1;stroke:none;stroke-width:1.16644;stroke-opacity:1"
     id="rect2"
     width="19.948139"
     height="7.8065462"
     x="2.0568225"
     y="3.9788506"
     inkscape:label="rect2" />
  <path
     fill-rule="evenodd"
     clip-rule="evenodd"
     d="M 3.4915,2.4279 C 1.6741,2.4279 0.24,3.9367 0.24,5.7488 v 12.5024 c 0,1.8121 1.4341,3.3209 3.2515,3.3209 h 17.017 c 1.8174,0 3.2515,-1.5088 3.2515,-3.3209 V 5.7488 c 0,-1.8121 -1.4341,-3.3209 -3.2515,-3.3209 z m 9.744428,5.1370482 V 4.8893 c 0,-0.4531 -0.3673,-0.8205 -0.8205,-0.8205 -0.4532,0 -0.8204,0.3674 -0.8204,0.8205 V 7.9325292 L 3.9203121,7.9729262 V 4.8892999 c 0,-0.4531 -0.3673,-0.8205 -0.8205,-0.8205 -0.4532,0 -0.8204,0.3674 -0.8204,0.8205 v 5.7073091 c 0,0.4531 0.3673,0.8205 0.8204,0.8205 H 21.0251 c 0.4531,0 0.8205,-0.3674 0.8205,-0.8205 0,-0.4531 -0.3674,-0.8205003 -0.8205,-0.8205003 h -6.282162"
     fill="currentColor"
     stroke-width="1.5"
     id="path1"
     style="stroke:none;stroke-opacity:1"
     sodipodi:nodetypes="ssssssssscsssccssssssssc" />
  <rect
     style="fill:#b60002;fill-opacity:1;stroke:none;stroke-width:1.7489;stroke-dasharray:none;stroke-opacity:1;paint-order:markers fill stroke"
     id="rect1-7"
     width="7.8651891"
     height="4.9686561"
     x="13.212752"
     y="4.8025312"
     ry="1.604081" />
  <rect
     style="fill:#057d22;fill-opacity:1;stroke-width:1.82854"
     id="rect1"
     width="7.676477"
     height="5.0002241"
     x="3.9253871"
     y="4.777462"
     ry="1.7309731" />
</svg>
