<?xml version="1.0" encoding="UTF-8" standalone="no"?>
<svg
   viewBox="0 0 24 24"
   fill="none"
   id="Bookmark-Circle--Streamline-Iconoir.svg"
   height="24"
   width="24"
   version="1.1"
   sodipodi:docname="Bookmark-Circle--Streamline-Iconoir.svg"
   inkscape:version="1.3.2 (091e20ef0f, 2023-11-25)"
   inkscape:export-filename="Bookmark-Circle--Streamline-Iconoir.png"
   inkscape:export-xdpi="512"
   inkscape:export-ydpi="512"
   xmlns:inkscape="http://www.inkscape.org/namespaces/inkscape"
   xmlns:sodipodi="http://sodipodi.sourceforge.net/DTD/sodipodi-0.dtd"
   xmlns="http://www.w3.org/2000/svg"
   xmlns:svg="http://www.w3.org/2000/svg">
  <defs
     id="defs1" />
  <sodipodi:namedview
     id="namedview1"
     pagecolor="#ffffff"
     bordercolor="#000000"
     borderopacity="0.25"
     inkscape:showpageshadow="2"
     inkscape:pageopacity="0.0"
     inkscape:pagecheckerboard="0"
     inkscape:deskcolor="#d1d1d1"
     inkscape:zoom="76.375"
     inkscape:cx="12.006547"
     inkscape:cy="12"
     inkscape:window-width="2338"
     inkscape:window-height="1665"
     inkscape:window-x="26"
     inkscape:window-y="23"
     inkscape:window-maximized="0"
     inkscape:current-layer="Bookmark-Circle--Streamline-Iconoir.svg" />
  <desc
     id="desc1">Bookmark Circle Streamline Icon: https://streamlinehq.com</desc>
  <rect
     style="fill:#ffffff"
     id="rect1"
     width="8.431057"
     height="10.598048"
     x="7.7867737"
     y="6.6914382" />
  <path
     fill-rule="evenodd"
     clip-rule="evenodd"
     d="M12 0.24C5.5051 0.24 0.24 5.5051 0.24 12C0.24 18.4949 5.5051 23.76 12 23.76C18.4949 23.76 23.76 18.4949 23.76 12C23.76 5.5051 18.4949 0.24 12 0.24ZM10.906 6.8037C9.2446 6.8037 7.8977 8.1506 7.8977 9.8121V16.3758C7.8977 16.6784 8.0642 16.9564 8.331 17.0992C8.5978 17.242 8.9215 17.2264 9.1733 17.0584L11.2415 15.6796C11.7008 15.3734 12.2992 15.3734 12.7586 15.6796L14.8268 17.0584C15.0785 17.2264 15.4022 17.242 15.669 17.0992C15.9358 16.9564 16.1023 16.6784 16.1023 16.3758V9.8121C16.1023 8.1506 14.7554 6.8037 13.094 6.8037H10.906Z"
     fill="currentColor"
     stroke-width="1"
     id="path1" />
</svg>
